<svg width="40" height="44" viewBox="0 0 40 44" fill="none" xmlns="http://www.w3.org/2000/svg">
<path d="M1.07674 12.6539C1.29008 11.8996 1.73348 11.3021 2.54499 11.1554L11.4155 11.1362C11.7359 8.04281 13.0511 4.86816 15.6588 3.05037C18.2146 1.26861 21.5025 1.26861 24.0591 3.05037C26.6158 4.83212 27.9811 8.04197 28.3024 11.1362L37.0976 11.1479C37.966 11.2351 38.6545 12.0798 38.6445 12.9431C38.632 14.0099 38.4479 15.2067 38.3927 16.2929C38.002 23.8674 37.5527 31.4462 37.1294 39.0308C36.9144 40.6374 35.8845 41.959 34.3837 42.5532L33.2994 42.8466H6.41931C5.51828 42.6647 4.73689 42.368 4.03833 41.7613C3.21176 41.0439 2.75581 40.1153 2.59016 39.0308L1.49421 19.2194L1.07758 13.1551V12.6531L1.07674 12.6539ZM26.5363 11.1479C26.4058 7.78384 23.9654 3.69737 20.3212 3.44929C16.1114 3.16267 13.3857 7.34301 13.1799 11.1479H26.5363ZM36.8876 12.8207H2.82943C3.25526 21.4026 3.84089 29.9603 4.24999 38.538C4.30939 39.8278 5.23969 40.945 6.54061 41.0941L33.4032 41.0707C34.5619 40.7916 35.3851 39.8077 35.4579 38.6126L36.8876 12.8207Z" fill="#EE4D2D"/>
<path d="M33.409 43.6845H6.33565L6.25366 43.6678C5.08492 43.4314 4.23242 43.0392 3.49035 42.3947C2.5475 41.5768 1.96606 40.4873 1.76276 39.1572L1.75439 39.0768L0.658442 19.2721L0.240139 13.1843V12.5373L0.27193 12.425C0.601553 11.2626 1.35617 10.5192 2.39607 10.3306L2.46886 10.3172L10.6793 10.2996C11.2022 6.8744 12.8185 4.009 15.1802 2.36218C18.0222 0.381797 21.694 0.381797 24.536 2.36218C26.8977 4.00817 28.5141 6.87356 29.0369 10.2988L37.1386 10.3097L37.1796 10.3139C38.463 10.4429 39.4945 11.6271 39.4794 12.9522C39.4719 13.6025 39.405 14.2872 39.3406 14.9501C39.2937 15.4354 39.2485 15.8938 39.226 16.3355C38.9549 21.5886 38.6512 26.933 38.3567 32.1006C38.2245 34.4254 38.0924 36.7511 37.9627 39.0768L37.9568 39.1413C37.7 41.0571 36.4785 42.6235 34.6899 43.3317L34.6464 43.3493L33.4099 43.6845H33.409ZM6.50464 42.0084H33.1865L34.116 41.7569C35.3014 41.2717 36.1121 40.2274 36.2937 38.9502C36.4233 36.6354 36.5547 34.3207 36.686 32.0059C36.9797 26.84 37.2834 21.498 37.5544 16.2492C37.5795 15.7698 37.628 15.2703 37.6749 14.7875C37.736 14.1598 37.7987 13.5112 37.8054 12.9329C37.8071 12.8172 37.782 12.6999 37.7368 12.5901L36.292 38.6586C36.1966 40.2249 35.114 41.5198 33.5973 41.8852L33.5011 41.9086L6.49209 41.9321L6.44441 41.9262C4.76868 41.7351 3.4937 40.3263 3.41255 38.5764C3.19838 34.0818 2.93066 29.5126 2.67215 25.0942C2.4379 21.0874 2.19529 16.9439 1.99199 12.8616L1.97861 12.5985C1.95518 12.653 1.93259 12.7125 1.91084 12.7778V13.1265L2.3258 19.1732L3.42008 38.9418C3.56816 39.862 3.94881 40.5769 4.58296 41.1275C5.08659 41.5642 5.66385 41.8299 6.50213 42.0084H6.50464ZM3.70954 13.6587C3.90196 17.4484 4.12701 21.2818 4.34453 24.997C4.60387 29.4196 4.87159 33.993 5.08576 38.4985C5.12759 39.407 5.75839 40.1386 6.59248 40.2559L33.2944 40.2325C34.0449 40.0137 34.5744 39.3533 34.6221 38.5613L36.0025 13.6587H3.70954ZM27.4064 11.9825H34.6455L27.5478 11.9733L27.47 11.2224C27.1311 7.95217 25.7139 5.22422 23.5814 3.7383C21.3201 2.16272 18.3978 2.16188 16.1373 3.7383C14.0048 5.22422 12.5876 7.95217 12.2488 11.2224L12.171 11.9724L7.55625 11.9825H12.299L12.3467 11.1025C12.4864 8.51201 13.6852 5.91647 15.4747 4.32999C16.8802 3.08376 18.576 2.4904 20.3797 2.61276C22.2964 2.7435 24.0876 3.81541 25.422 5.6332C26.589 7.2222 27.3001 9.22018 27.3738 11.1151L27.4072 11.9825H27.4064ZM14.1119 10.3097H25.6127C25.4036 9.01821 24.8547 7.69153 24.0734 6.62716C23.0351 5.21416 21.6832 4.38195 20.2651 4.28557C18.899 4.19254 17.6608 4.63002 16.5824 5.58543C15.3166 6.70762 14.4106 8.46172 14.1119 10.3097Z" fill="#EE4D2D"/>
<path d="M12.9423 35.1387L13.0268 34.7893L13.8852 33.6503C15.8813 35.2938 18.5149 36.3607 21.1293 35.883C25.1551 35.1463 26.5823 30.9249 22.7523 28.6981C19.3457 26.7177 12.0388 26.0556 13.6375 20.2628C14.9033 15.6769 21.09 15.6911 24.5895 17.4058C24.797 17.5072 25.8838 18.0863 25.8361 18.2615L24.9928 19.5932C22.749 18.0889 19.1867 17.2449 16.7765 18.8071C15.4546 19.6644 14.7034 21.3481 15.3927 22.8567C16.7673 25.8654 24.27 25.6374 26.1908 29.853C27.787 33.3561 25.4253 36.5568 21.9977 37.4208C18.7333 38.2447 15.5559 37.0588 12.9423 35.1387Z" fill="#EE4D2D"/>
<path d="M19.8544 38.523C17.8306 38.523 15.2873 37.9003 12.4479 35.8143L11.9978 35.4841L12.2555 34.4222L13.7438 32.4477L14.4173 33.0025C16.4736 34.6954 18.8655 35.4439 20.9796 35.0575C22.6653 34.7491 23.9002 33.7157 24.1252 32.4243C24.3218 31.2928 23.6693 30.1992 22.3332 29.4223C21.5502 28.9672 20.5086 28.5733 19.4068 28.1559C17.603 27.4737 15.7383 26.7672 14.388 25.6006C12.7323 24.1692 12.2086 22.2986 12.8327 20.04C13.3096 18.3118 14.449 16.9977 16.1281 16.2409C18.986 14.952 22.7088 15.5512 24.9593 16.6541C25.0555 16.701 25.4069 16.8829 25.7482 17.0924C26.1565 17.3438 26.84 17.7637 26.6459 18.4811L26.6125 18.6035L25.2421 20.7682L24.5293 20.2905C22.4528 18.8985 19.2804 18.1844 17.2333 19.512C16.2954 20.1204 15.6236 21.3448 16.1557 22.5089C16.6393 23.5674 18.4171 24.2169 20.2994 24.9042C22.8619 25.8403 25.7675 26.9005 26.9538 29.5052C27.7201 31.1872 27.7285 32.9757 26.978 34.5396C26.1272 36.3129 24.3427 37.6941 22.2044 38.2338C21.5351 38.4031 20.7453 38.523 19.856 38.523H19.8544ZM14.0157 34.8681C15.975 36.1747 18.7609 37.3731 21.7936 36.6079C23.4559 36.1889 24.8296 35.1438 25.468 33.813C26.0076 32.6891 25.9942 31.4395 25.4295 30.2C24.5335 28.2339 22.0889 27.3405 19.7238 26.4772C19.5925 26.4295 19.4611 26.3817 19.3306 26.3331C19.5523 26.4186 19.7749 26.5024 19.9966 26.5862C21.1653 27.0287 22.2688 27.4461 23.1715 27.9707C25.1191 29.1029 26.0912 30.8746 25.7725 32.71C25.4261 34.7005 23.6626 36.2685 21.2791 36.7043C20.8156 36.789 20.3429 36.8309 19.8652 36.8309C17.9126 36.8309 15.8771 36.1336 14.045 34.8262L14.0148 34.8664L14.0157 34.8681ZM17.7411 17.4419C17.419 17.5274 17.1086 17.6355 16.8133 17.7688C15.586 18.3219 14.7887 19.2362 14.444 20.4866C14.0274 21.9969 14.2608 23.1191 15.2053 24.0753C14.9719 23.8147 14.7787 23.5272 14.6323 23.2062C13.8141 21.4152 14.5252 19.2698 16.3222 18.1048C16.7564 17.8232 17.2316 17.602 17.7411 17.4427V17.4419ZM22.698 17.5869C23.4007 17.8048 24.0867 18.0964 24.7267 18.4501L24.7343 18.4375C24.5527 18.3311 24.3561 18.2238 24.2223 18.1585C23.7688 17.9364 23.2526 17.7419 22.6971 17.5869H22.698Z" fill="#EE4D2D"/>
</svg>
